<?xml version="1.0" encoding="UTF-8"?>
<svg id="Layer_2" data-name="Layer 2" xmlns="http://www.w3.org/2000/svg" viewBox="0 0 219.68 197.81">
  <defs>
    <style>
      .cls-1 {
        fill: #283b15;
      }

      .cls-2 {
        fill: #568244;
      }

      .cls-3 {
        fill: #29495a;
      }
    </style>
  </defs>
  <g id="other">
    <path class="cls-3" d="M125.05,92.76c-1.06-2.15-1.9-4.31-2.54-6.48-1.49,1.17-3.09,2.22-4.78,3.16-2.29,1.27-4.68,2.31-7.16,3.12.7,2.04,1.55,4.06,2.54,6.08.78,1.58,1.61,3.09,2.51,4.54,2.96-.97,5.8-2.19,8.56-3.66,1.22-.65,2.4-1.34,3.55-2.09-.97-1.46-1.86-3.02-2.68-4.67Z"/>
    <path class="cls-1" d="M137.7,0v29.43c.62-.33,1.24-.65,1.88-.96,3.77-1.85,7.58-3.3,11.43-4.34V0h-13.31ZM144.64,41.67c-2.49,1.23-4.8,2.62-6.94,4.17v6.16c0,8.6-1.77,16.12-5.31,22.56-2.57,4.7-5.87,8.61-9.88,11.72-1.49,1.17-3.09,2.22-4.78,3.16-2.29,1.27-4.68,2.31-7.16,3.12-4.27,1.38-8.82,2.08-13.64,2.08h-14.77V0h-13.52v55.53c0,7.35-1.84,14.04-5.51,20.07-3.68,6.04-8.63,10.72-14.87,14.04-6.24,3.33-12.97,5-20.18,5h-14.97V0H0v106.08h28.08c8.46,0,16.19-1.67,23.19-5,7-3.32,12.8-8.04,17.37-14.14v19.14h28.29c6.63,0,12.86-.97,18.69-2.9,2.96-.97,5.8-2.19,8.56-3.66,1.22-.65,2.4-1.34,3.55-2.09,6.54-4.19,11.87-9.77,16-16.73,4.85-8.18,7.28-17.75,7.28-28.7v-12.93c-2.13.69-4.25,1.56-6.37,2.6Z"/>
    <path class="cls-2" d="M219.68,160.29c0,6.89-3.97,12.85-9.75,15.7-.13.07-.27.14-.4.19l-47.37,21.63-5-10.56,32.57-14.61,14.65-6.94.54-.25c1.86-1.02,3.12-3,3.12-5.26,0-3.31-2.68-5.99-5.98-5.99-.8,0-1.56.16-2.26.44-.23.09-.45.2-.67.32l-14.42,6.85-13.98,6.64-1.71.82c-4.85,1.91-9.42,2.55-13.71,1.91-5.18-.78-8.9-3.47-11.16-8.07-1.23-2.49-1.88-5.07-1.95-7.74-.08-2.66.17-6.07.76-10.22l3.11-20.52c-5.3-1.17-10.32-3.19-15.04-6.07-6.3-3.83-10.84-8.09-14.81-14.51,2.96-.97,5.8-2.19,8.56-3.66,1.22-.65,2.4-1.34,3.55-2.09,2.92,4.39,5.95,7.07,10.3,9.8,5.81,3.63,12.24,5.56,19.31,5.79,7.07.23,13.96-1.31,20.68-4.61,6.84-3.37,12.3-7.91,16.37-13.62,4.06-5.71,6.43-11.98,7.09-18.8.66-6.81-.63-13.52-3.87-20.11-3.25-6.59-7.78-11.71-13.58-15.34-5.81-3.63-12.22-5.58-19.22-5.84-4.84-.18-9.64.5-14.4,2.06-2.13.69-4.25,1.56-6.37,2.6-2.49,1.23-4.8,2.62-6.94,4.17-3.62,2.66-6.74,5.79-9.34,9.4-4.12,5.74-6.52,12.02-7.18,18.84-.45,4.6-.36,8.09.98,12.59-1.49,1.17-3.09,2.22-4.78,3.16-2.29,1.27-4.68,2.31-7.16,3.12-2.31-6.64-2.73-12.35-1.97-19.23.99-8.98,4.25-17.2,9.78-24.64,5.13-6.9,11.7-12.47,19.67-16.72.62-.33,1.24-.65,1.88-.96,3.77-1.85,7.58-3.3,11.43-4.34,3.1-.83,6.23-1.4,9.38-1.7l6.63-23.92,12.26.07-7.99,23.87c7.51.75,14.49,3.09,20.94,7,7.72,4.7,13.69,11.34,17.92,19.93,4.22,8.58,5.84,17.37,4.86,26.35-.99,8.99-4.25,17.2-9.78,24.64-5.54,7.44-12.72,13.33-21.55,17.68-8.23,4.05-16.63,6.15-25.22,6.3l-2.47,18.46c-.59,4.77-.37,8.21.68,10.33.65,1.33,1.51,2.27,2.57,2.84.32.17,1.25.62,2.85.63,2.94.01,5.52-.88,6.65-1.34h.03s25.52-12.12,25.52-12.12l.6-.29c2.21-1.02,4.68-1.58,7.27-1.58,4.75,0,9.06,1.89,12.21,4.96,2.88,2.79,4.79,6.56,5.22,10.77.06.59.09,1.19.09,1.79Z"/>
  </g>
</svg>